<svg xmlns="http://www.w3.org/2000/svg" viewBox="0 0 1200 760" role="img" aria-labelledby="title desc"><title id="title">Mise en place de l'environnement et gestion</title><desc id="desc">Serveurs et outils d'administration.</desc><defs><linearGradient id="bg" x1="0" y1="0" x2="1" y2="1"><stop stop-color="#0d1933"/><stop offset="1" stop-color="#183a3d"/></linearGradient></defs><rect width="1200" height="760" rx="28" fill="url(#bg)"/><g fill="#101936" stroke="#00d9ff" stroke-width="4"><rect x="150" y="160" width="330" height="130" rx="16"/><rect x="150" y="330" width="330" height="130" rx="16"/><rect x="150" y="500" width="330" height="100" rx="16"/></g><g fill="#00d9ff"><circle cx="195" cy="220" r="12"/><circle cx="235" cy="220" r="12"/><circle cx="275" cy="220" r="12"/><circle cx="195" cy="390" r="12"/><circle cx="235" cy="390" r="12"/><circle cx="275" cy="390" r="12"/></g><path d="M540 225h170M540 395h170M540 550h170" stroke="#d946ef" stroke-width="12" stroke-linecap="round"/><path d="M690 225l-35-25m35 25-35 25M690 395l-35-25m35 25-35 25M690 550l-35-25m35 25-35 25" fill="none" stroke="#d946ef" stroke-width="8"/><circle cx="900" cy="380" r="130" fill="#101936" stroke="#ff006e" stroke-width="5"/><path d="M900 285v190M805 380h190M833 313l134 134M967 313L833 447" stroke="#ff006e" stroke-width="12" opacity=".8"/><text x="105" y="680" fill="#f1f5f9" font-family="sans-serif" font-size="42" font-weight="700">ENVIRONNEMENT &amp; GESTION</text></svg>